<svg xmlns="http://www.w3.org/2000/svg" viewBox="0 0 512 512" role="img" aria-label="NahfiMap">
  <defs>
    <linearGradient id="bg" x1="96" y1="48" x2="430" y2="466" gradientUnits="userSpaceOnUse">
      <stop offset="0" stop-color="#edf0df"/>
      <stop offset="0.52" stop-color="#b9c7b6"/>
      <stop offset="1" stop-color="#6f8778"/>
    </linearGradient>
    <linearGradient id="forest" x1="140" y1="190" x2="362" y2="416" gradientUnits="userSpaceOnUse">
      <stop offset="0" stop-color="#6e9477"/>
      <stop offset="1" stop-color="#20382e"/>
    </linearGradient>
    <linearGradient id="ridge" x1="96" y1="134" x2="418" y2="328" gradientUnits="userSpaceOnUse">
      <stop offset="0" stop-color="#f7f4e8"/>
      <stop offset="0.58" stop-color="#d9ded0"/>
      <stop offset="1" stop-color="#9cab9d"/>
    </linearGradient>
    <filter id="softShadow" x="-20%" y="-20%" width="140%" height="150%">
      <feDropShadow dx="0" dy="20" stdDeviation="24" flood-color="#13251f" flood-opacity=".24"/>
    </filter>
    <filter id="pinShadow" x="-35%" y="-35%" width="170%" height="180%">
      <feDropShadow dx="0" dy="12" stdDeviation="12" flood-color="#13251f" flood-opacity=".24"/>
    </filter>
  </defs>
  <rect width="512" height="512" rx="112" fill="#20382e"/>
  <rect x="28" y="28" width="456" height="456" rx="94" fill="url(#bg)"/>
  <circle cx="146" cy="118" r="56" fill="#f7f4e8" opacity=".42"/>
  <circle cx="392" cy="116" r="22" fill="#f7f4e8" opacity=".38"/>
  <g filter="url(#softShadow)">
    <path d="M76 346c38-70 78-132 121-186 17-21 38-20 55 1l23 29 38-52c17-24 43-22 59 3 31 47 55 101 74 164 7 24-8 49-33 54-101 20-201 21-300 5-29-5-51-17-37-18z" fill="url(#ridge)"/>
    <path d="M104 350c34-53 67-91 99-114 14-10 31-6 39 9l38 70 29-43c11-16 32-15 42 2l45 75c-96 28-194 29-292 1z" fill="url(#forest)"/>
    <path d="M198 160l45 56-33-16-18 33-28-35zM312 139l55 80-37-22-22 42-34-48z" fill="#f7f4e8" opacity=".86"/>
    <path d="M130 374c71 22 171 24 265 1" fill="none" stroke="#f7f4e8" stroke-width="16" stroke-linecap="round" opacity=".72"/>
    <path d="M143 365c54-34 101-30 142 12 28 29 64 29 105-2" fill="none" stroke="#b68a4b" stroke-width="12" stroke-linecap="round" stroke-dasharray="1 26"/>
  </g>
  <g filter="url(#pinShadow)">
    <path d="M334 208c0 45-54 104-54 104s-54-59-54-104a54 54 0 0 1 108 0z" fill="#f7f4e8"/>
    <circle cx="280" cy="208" r="22" fill="#3f7f61"/>
  </g>
  <path d="M96 406c88 32 219 34 320 1" fill="none" stroke="#20382e" stroke-width="14" stroke-linecap="round" opacity=".18"/>
</svg>
